 http://img806.imageshack.us/img806/2824/mv5bmje1njc4nty4of5bml5.jpg

Country.......: Germany, France, Israel
Genre.........: Drama
Date release..: 10.08.2010 [World]
Director......: Eran Riklis
Writers.......: Abraham B. Jehoshua, Noah Stollman
Duration......: 99 min.
More..........: http://www.imdb.com/title/tt1311075
Trailer.......: http://www.imdb.com/video/imdb/vi1750964761
Trailer.......:

Pilot :
A tragi-comedy centered on the HR manager of Israel's largest industrial bakery, who sets out to save the reputation of his business and prevent the publication of a defamatory article. 

Cats :
Mark Ivanir   	 ...  	the Human Resources Manager
Reymond Amsalem 	... 	The Divorcee
Gila Almagor 	... 	Widow
Noah Silver 	... 	The Boy
Rosina Kambus 		
Guri Alfi 	... 	Weasel
Julian Negulesco 	... 	The Vice Consul
Papil Panduru 	... 	The Driver
Bogdan E. Stanoevitch 	... 	The Ex Husband
Irina Petrescu 	... 	The Grandmother
Danna Semo 	... 	The Secretary
Yigal Sade 		
Sylwia Drori 	... 	The Nun
Ofir Weil 	... 	The Morgue Worker
Roni Koren 	... 	The Daughter 

Data Technical :
!!! SAMPLE !!!
Audio.....: Romanian
Subtitles.: English .sub
Format                           : AVI
Format/Info                      : Audio Video Interleave
File size                        : 700 MiB
Duration                         : 1h 39mn
Overall bit rate                 : 984 Kbps
Writing application              : VirtualDubMod 1.5.10.2 (build 2540/release)
Writing library                  : VirtualDubMod build 2540/release
Video
ID                               : 0
Format                           : MPEG-4 Visual
Format profile                   : Advanced Simple@L5
Format settings, BVOP            : Yes
Format settings, QPel            : No
Format settings, GMC             : No warppoints
Format settings, Matrix          : Default (H.263)
Codec ID                         : XVID
Codec ID/Hint                    : XviD
Duration                         : 1h 39mn
Bit rate                         : 841 Kbps
Width                            : 592 pixels
Height                           : 320 pixels
Display aspect ratio             : 1.850
Frame rate                       : 25.000 fps
Color space                      : YUV
Chroma subsampling               : 4:2:0
Bit depth                        : 8 bits
Scan type                        : Progressive
Bits/(Pixel*Frame)               : 0.177
Stream size                      : 598 MiB (85%)
Writing library                  : XviD 1.1.2 (UTC 2006-11-01)
Audio
ID                               : 1
Format                           : MPEG Audio
Format version                   : Version 1
Format profile                   : Layer 3
Codec ID                         : 55
Codec ID/Hint                    : MP3
Duration                         : 1h 39mn
Bit rate mode                    : Variable
Bit rate                         : 131 Kbps
Minimum bit rate                 : 128 Kbps
Channel(s)                       : 2 channels
Sampling rate                    : 48.0 KHz
Stream size                      : 93.1 MiB (13%)
Alignment                        : Aligned on interleaves
Interleave, duration             : 24 ms (0.60 video frame)
Interleave, preload duration     : 492 ms
Writing library                  : LAME3.95 
Encoding settings                : -m s -V 6 -q 3 -lowpass 16 --vbr-old -b 128

Screen : 
http://img163.imageshack.us/img163/5186/thehumanresourcesmanage.jpg 
http://img823.imageshack.us/img823/5186/thehumanresourcesmanage.jpg 
http://img814.imageshack.us/img814/5186/thehumanresourcesmanage.jpg 
http://img508.imageshack.us/img508/5186/thehumanresourcesmanage.jpg 
http://img840.imageshack.us/img840/5186/thehumanresourcesmanage.jpg